<svg version="1.1" id="Layer_1" xmlns="http://www.w3.org/2000/svg" xmlns:xlink="http://www.w3.org/1999/xlink" x="0px" y="0px"
	 width="100%" viewBox="0 0 180 177" enable-background="new 0 0 180 177" xml:space="preserve">
<path fill="#002E2C" opacity="1.000000" stroke="none" 
	d="
M181.000000,68.000000 
	C181.000000,105.000000 181.000000,141.500000 181.000000,178.000000 
	C121.000000,178.000000 61.000000,178.000000 1.000000,178.000000 
	C1.000000,119.000000 1.000000,60.000000 1.000000,1.000000 
	C61.000000,1.000000 121.000000,1.000000 181.000000,1.000000 
	C181.000000,23.166666 181.000000,45.333332 181.000000,68.000000 
M60.308708,20.243887 
	C48.251980,25.727194 37.556145,32.982376 29.093946,44.220371 
	C18.910028,56.792034 13.351440,71.272797 12.415240,87.305634 
	C11.159016,108.819023 17.177454,128.070740 32.177467,144.824860 
	C46.435078,160.312820 63.726322,169.621414 85.944527,170.917664 
	C88.443932,170.939499 91.018410,171.361328 93.428818,170.908966 
	C100.997757,169.488403 108.504974,167.738937 116.794189,166.057373 
	C136.274994,159.903610 150.247543,146.882294 159.731277,129.417282 
	C171.524002,107.700050 172.181259,84.926384 162.771500,62.017376 
	C157.823746,49.971581 149.651825,40.418549 139.723679,32.076286 
	C128.717773,22.828417 116.500572,16.847923 101.511444,15.265876 
	C87.499840,12.636974 74.107033,15.158026 60.308708,20.243887 
z"/>
<path fill="#00AAA2" opacity="1.000000" stroke="none" 
	d="
M102.031601,15.876937 
	C116.500572,16.847923 128.717773,22.828417 139.723679,32.076286 
	C149.651825,40.418549 157.823746,49.971581 162.771500,62.017376 
	C172.181259,84.926384 171.524002,107.700050 159.731277,129.417282 
	C150.247543,146.882294 136.274994,159.903610 116.410889,165.717758 
	C116.020279,164.639465 116.012962,163.900772 116.321899,162.981949 
	C135.330688,155.583710 149.255264,142.880768 157.887604,124.977654 
	C179.702271,79.734818 151.636063,26.716967 102.015503,18.451365 
	C102.022011,17.348036 102.026802,16.612486 102.031601,15.876937 
z"/>
<path fill="#009790" opacity="1.000000" stroke="none" 
	d="
M31.849335,144.258408 
	C17.177454,128.070740 11.159016,108.819023 12.415240,87.305634 
	C13.351440,71.272797 18.910028,56.792034 29.663857,44.170479 
	C30.853136,44.425137 31.472509,44.729687 32.011940,45.375237 
	C30.595379,47.803070 29.235510,49.875423 27.925713,51.978954 
	C14.154557,74.095329 11.903797,97.373589 21.753771,121.453636 
	C24.668705,128.579727 29.245611,135.026001 32.911011,142.093872 
	C32.457172,143.022095 32.153255,143.640259 31.849335,144.258408 
z"/>
<path fill="#009D95" opacity="1.000000" stroke="none" 
	d="
M32.013401,144.541626 
	C32.153255,143.640259 32.457172,143.022095 33.202511,142.273575 
	C34.678989,142.957108 35.807819,143.676743 36.735008,144.599091 
	C50.132610,157.926590 66.067955,165.849884 85.029068,167.720367 
	C85.030197,168.962326 85.027161,169.865585 85.024117,170.768860 
	C63.726322,169.621414 46.435078,160.312820 32.013401,144.541626 
z"/>
<path fill="#00A29B" opacity="1.000000" stroke="none" 
	d="
M101.771515,15.571406 
	C102.026802,16.612486 102.022011,17.348036 101.594604,18.506657 
	C96.541069,18.619490 91.812012,17.563673 87.300049,18.157475 
	C78.476814,19.318663 69.774788,21.400846 61.020805,22.730608 
	C61.015690,21.617138 61.012360,20.874825 61.009029,20.132511 
	C74.107033,15.158026 87.499840,12.636974 101.771515,15.571406 
z"/>
<path fill="#009D95" opacity="1.000000" stroke="none" 
	d="
M60.658867,20.188198 
	C61.012360,20.874825 61.015690,21.617138 60.833145,23.018967 
	C49.817959,29.044296 40.448006,36.361454 32.091881,45.034233 
	C31.472509,44.729687 30.853136,44.425137 29.922974,43.970531 
	C37.556145,32.982376 48.251980,25.727194 60.658867,20.188198 
z"/>
<path fill="#00A8A0" opacity="1.000000" stroke="none" 
	d="
M85.484322,170.843262 
	C85.027161,169.865585 85.030197,168.962326 85.494507,167.675949 
	C96.251770,167.948257 106.243324,166.388962 116.005646,163.162094 
	C116.012962,163.900772 116.020279,164.639465 116.031845,165.747498 
	C108.504974,167.738937 100.997757,169.488403 93.428818,170.908966 
	C91.018410,171.361328 88.443932,170.939499 85.484322,170.843262 
z"/>
<path fill="#003230" opacity="1.000000" stroke="none" 
	d="
M116.321899,162.981949 
	C106.243324,166.388962 96.251770,167.948257 85.490341,167.337250 
	C66.067955,165.849884 50.132610,157.926590 36.735008,144.599091 
	C35.807819,143.676743 34.678989,142.957108 33.352428,141.963501 
	C29.245611,135.026001 24.668705,128.579727 21.753771,121.453636 
	C11.903797,97.373589 14.154557,74.095329 27.925713,51.978954 
	C29.235510,49.875423 30.595379,47.803070 32.011940,45.375237 
	C40.448006,36.361454 49.817959,29.044296 60.834923,23.390125 
	C69.774788,21.400846 78.476814,19.318663 87.300049,18.157475 
	C91.812012,17.563673 96.541069,18.619490 101.592896,18.874435 
	C151.636063,26.716967 179.702271,79.734818 157.887604,124.977654 
	C149.255264,142.880768 135.330688,155.583710 116.321899,162.981949 
M83.560402,161.898529 
	C95.821487,162.634537 107.822945,161.801651 119.702782,155.903244 
	C125.257233,152.351654 131.465240,149.512711 136.251419,145.123367 
	C155.538208,127.435646 163.694977,105.476364 158.825882,79.477303 
	C154.679260,57.336159 141.737289,41.506180 121.538200,30.492350 
	C110.314941,24.966082 98.535973,22.277340 85.088097,23.463472 
	C76.686028,25.837908 68.283958,28.212341 59.191929,30.796293 
	C50.504658,35.211987 42.865860,40.941742 36.266491,49.078316 
	C35.464790,50.141373 34.640724,51.188374 33.864677,52.269836 
	C15.787055,77.461952 16.945461,114.050011 36.874592,136.880920 
	C43.218262,144.646027 50.788441,150.838028 60.564075,155.366684 
	C67.952393,157.487137 75.340714,159.607605 83.560402,161.898529 
z"/>
<path fill="#00ADA5" opacity="1.000000" stroke="none" 
	d="
M122.042732,30.974937 
	C141.737289,41.506180 154.679260,57.336159 158.825882,79.477303 
	C163.694977,105.476364 155.538208,127.435646 136.251419,145.123367 
	C131.465240,149.512711 125.257233,152.351654 119.317841,155.567932 
	C118.624641,152.855530 118.316383,150.478424 118.317757,147.940643 
	C130.041611,142.268692 130.681976,131.358932 131.961365,120.850632 
	C132.089462,119.798500 130.887665,118.584465 130.303070,117.445572 
	C129.539688,118.499802 128.416611,119.450882 128.079269,120.627281 
	C126.995399,124.406837 126.201759,128.269623 125.024971,131.822205 
	C124.176079,129.518906 123.110893,127.497101 123.096771,125.467972 
	C122.968201,106.990318 122.965096,88.510956 123.106361,70.033478 
	C123.121750,68.020103 124.278282,66.015450 125.166931,64.266357 
	C126.547455,63.869095 128.682739,63.120667 128.633041,62.569099 
	C127.902824,54.464668 127.529716,46.162659 120.982483,39.610474 
	C121.325340,36.468987 121.684036,33.721962 122.042732,30.974937 
z"/>
<path fill="#009D95" opacity="1.000000" stroke="none" 
	d="
M60.006557,154.916412 
	C50.788441,150.838028 43.218262,144.646027 36.885075,136.191010 
	C37.261696,133.061340 37.937798,130.622650 37.945908,128.181717 
	C38.024780,104.450279 38.030571,80.718323 37.938736,56.986984 
	C37.927982,54.208206 37.203300,51.432190 36.809586,48.654896 
	C42.865860,40.941742 50.504658,35.211987 59.552109,31.188635 
	C59.943714,72.692787 59.975136,113.804604 60.006557,154.916412 
z"/>
<path fill="#009891" opacity="1.000000" stroke="none" 
	d="
M36.538040,48.866608 
	C37.203300,51.432190 37.927982,54.208206 37.938736,56.986984 
	C38.030571,80.718323 38.024780,104.450279 37.945908,128.181717 
	C37.937798,130.622650 37.261696,133.061340 36.707626,135.899231 
	C16.945461,114.050011 15.787055,77.461952 33.864677,52.269836 
	C34.640724,51.188374 35.464790,50.141373 36.538040,48.866608 
z"/>
<path fill="#00A19A" opacity="1.000000" stroke="none" 
	d="
M60.285316,155.141541 
	C59.975136,113.804604 59.943714,72.692787 59.897087,31.083876 
	C68.283958,28.212341 76.686028,25.837908 85.537971,23.992683 
	C85.990746,28.369850 85.993645,32.217808 85.534363,36.149216 
	C77.838989,36.232670 70.605797,36.232670 63.659924,36.232670 
	C63.292850,37.424316 63.109997,37.741280 63.109589,38.058483 
	C63.063297,73.951218 63.046635,109.844002 62.964394,145.736633 
	C62.958317,148.389420 64.118813,149.190643 66.569252,149.169159 
	C72.381706,149.118164 78.195404,149.209229 84.008224,149.686371 
	C83.581566,153.995926 83.155296,157.861984 82.729027,161.728058 
	C75.340714,159.607605 67.952393,157.487137 60.285316,155.141541 
z"/>
<path fill="#00A59E" opacity="1.000000" stroke="none" 
	d="
M83.144714,161.813293 
	C83.155296,157.861984 83.581566,153.995926 84.472939,149.625595 
	C95.961395,148.781326 106.984764,148.441315 118.008125,148.101318 
	C118.316383,150.478424 118.624641,152.855530 118.970222,155.632629 
	C107.822945,161.801651 95.821487,162.634537 83.144714,161.813293 
z"/>
<path fill="#00A59E" opacity="1.000000" stroke="none" 
	d="
M85.996552,36.065765 
	C85.993645,32.217808 85.990746,28.369850 85.986526,24.025677 
	C98.535973,22.277340 110.314941,24.966082 121.790466,30.733643 
	C121.684036,33.721962 121.325340,36.468987 120.658379,39.472656 
	C116.317154,38.553257 112.339600,36.679485 108.239105,36.353836 
	C100.863808,35.768108 93.414780,36.110901 85.996552,36.065765 
z"/>
<path fill="#00A8A0" opacity="1.000000" stroke="none" 
	d="
M124.905518,64.006752 
	C124.278282,66.015450 123.121750,68.020103 123.106361,70.033478 
	C122.965096,88.510956 122.968201,106.990318 123.096771,125.467972 
	C123.110893,127.497101 124.176079,129.518906 124.973618,132.185699 
	C123.000931,139.912201 118.024834,143.905014 110.874077,144.900925 
	C106.314842,145.535889 101.647820,145.397003 97.026680,145.161545 
	C97.024635,128.093185 97.025040,111.468361 97.455147,94.757339 
	C99.547607,94.616737 101.253761,94.770065 102.857903,94.435020 
	C103.929962,94.211098 104.856956,93.292595 105.848877,92.684921 
	C104.900864,92.068542 104.016014,91.093147 102.991272,90.912857 
	C101.044937,90.570412 99.018532,90.683098 97.023552,90.163101 
	C97.015869,73.167915 97.010017,56.616375 97.464722,39.998390 
	C117.415085,39.410709 123.055107,40.723061 124.905518,64.006752 
z"/>
<path fill="#00302E" opacity="1.000000" stroke="none" 
	d="
M97.025383,90.606758 
	C99.018532,90.683098 101.044937,90.570412 102.991272,90.912857 
	C104.016014,91.093147 104.900864,92.068542 105.848877,92.684921 
	C104.856956,93.292595 103.929962,94.211098 102.857903,94.435020 
	C101.253761,94.770065 99.547607,94.616737 97.100639,94.654999 
	C91.171608,94.610344 86.011909,94.359917 80.891991,94.702995 
	C79.543877,94.793335 77.207710,96.716988 77.205963,97.801811 
	C77.184296,111.240486 77.464119,124.680809 77.774704,138.118195 
	C77.874687,142.443741 80.343018,144.877762 84.625259,145.172272 
	C88.750298,145.455978 92.893761,145.471649 97.029129,145.605087 
	C101.647820,145.397003 106.314842,145.535889 110.874077,144.900925 
	C118.024834,143.905014 123.000931,139.912201 125.244812,132.463791 
	C126.201759,128.269623 126.995399,124.406837 128.079269,120.627281 
	C128.416611,119.450882 129.539688,118.499802 130.303070,117.445572 
	C130.887665,118.584465 132.089462,119.798500 131.961365,120.850632 
	C130.681976,131.358932 130.041611,142.268692 118.317757,147.940643 
	C106.984764,148.441315 95.961395,148.781326 84.473312,149.182098 
	C78.195404,149.209229 72.381706,149.118164 66.569252,149.169159 
	C64.118813,149.190643 62.958317,148.389420 62.964394,145.736633 
	C63.046635,109.844002 63.063297,73.951218 63.109589,38.058483 
	C63.109997,37.741280 63.292850,37.424316 63.659924,36.232670 
	C70.605797,36.232670 77.838989,36.232670 85.534363,36.149220 
	C93.414780,36.110901 100.863808,35.768108 108.239105,36.353836 
	C112.339600,36.679485 116.317154,38.553257 120.674225,39.867123 
	C127.529716,46.162659 127.902824,54.464668 128.633041,62.569099 
	C128.682739,63.120667 126.547455,63.869095 125.166931,64.266357 
	C123.055107,40.723061 117.415085,39.410709 97.003815,39.923676 
	C92.920731,39.927162 89.756599,39.862793 86.598007,39.966621 
	C80.162918,40.178169 77.985802,41.811348 77.759895,48.187962 
	C77.300568,61.152927 77.396858,74.136856 77.167862,87.111275 
	C77.117416,89.969696 78.356285,90.917877 81.060532,90.835205 
	C86.379509,90.672592 91.703476,90.673508 97.025383,90.606758 
z"/>
<path fill="#00A29B" opacity="1.000000" stroke="none" 
	d="
M97.023552,90.163101 
	C91.703476,90.673508 86.379509,90.672592 81.060532,90.835205 
	C78.356285,90.917877 77.117416,89.969696 77.167862,87.111275 
	C77.396858,74.136856 77.300568,61.152927 77.759895,48.187962 
	C77.985802,41.811348 80.162918,40.178169 86.598007,39.966621 
	C89.756599,39.862793 92.920731,39.927162 96.543259,39.990124 
	C97.010017,56.616375 97.015869,73.167915 97.023552,90.163101 
z"/>
<path fill="#00A19A" opacity="1.000000" stroke="none" 
	d="
M97.026680,145.161545 
	C92.893761,145.471649 88.750298,145.455978 84.625259,145.172272 
	C80.343018,144.877762 77.874687,142.443741 77.774704,138.118195 
	C77.464119,124.680809 77.184296,111.240486 77.205963,97.801811 
	C77.207710,96.716988 79.543877,94.793335 80.891991,94.702995 
	C86.011909,94.359917 91.171608,94.610344 96.670937,94.741203 
	C97.025040,111.468361 97.024635,128.093185 97.026680,145.161545 
z"/>
</svg>